<svg xmlns="http://www.w3.org/2000/svg" viewBox="0 0 500 400">
  <!-- Background shadow -->
  <rect x="0" y="0" width="500" height="400" fill="rgba(0,0,0,0.5)" />
  
  <!-- Popup Window -->
  <rect x="50" y="30" width="400" height="340" rx="10" fill="white" stroke="#ddd" stroke-width="1" />
  
  <!-- Title Bar -->
  <rect x="50" y="30" width="400" height="40" rx="10" fill="#4285F4" />
  <text x="250" y="55" font-family="Arial" font-size="16" font-weight="bold" fill="white" text-anchor="middle">Edit Event</text>
  <circle cx="430" cy="50" r="12" fill="#f44336" />
  <text x="430" y="55" font-family="Arial" font-size="18" font-weight="bold" fill="white" text-anchor="middle">×</text>
  
  <!-- Form Fields -->
  <text x="70" y="95" font-family="Arial" font-size="14" fill="#333">Event Name:</text>
  <rect x="70" y="105" width="360" height="30" rx="5" fill="white" stroke="#ddd" stroke-width="1" />
  <text x="80" y="125" font-family="Arial" font-size="12" fill="#333">CS 5010 Lecture</text>
  
  <text x="70" y="155" font-family="Arial" font-size="14" fill="#333">Date:</text>
  <rect x="70" y="165" width="160" height="30" rx="5" fill="white" stroke="#ddd" stroke-width="1" />
  <text x="80" y="185" font-family="Arial" font-size="12" fill="#333">April 10, 2025</text>
  
  <text x="250" y="155" font-family="Arial" font-size="14" fill="#333">Time:</text>
  <rect x="250" y="165" width="85" height="30" rx="5" fill="white" stroke="#ddd" stroke-width="1" />
  <text x="260" y="185" font-family="Arial" font-size="12" fill="#333">14:30</text>
  
  <text x="345" y="155" font-family="Arial" font-size="14" fill="#333">Duration:</text>
  <rect x="345" y="165" width="85" height="30" rx="5" fill="white" stroke="#ddd" stroke-width="1" />
  <text x="355" y="185" font-family="Arial" font-size="12" fill="#333">1 hour</text>
  
  <text x="70" y="215" font-family="Arial" font-size="14" fill="#333">Calendar:</text>
  <rect x="70" y="225" width="160" height="30" rx="5" fill="white" stroke="#ddd" stroke-width="1" />
  <text x="80" y="245" font-family="Arial" font-size="12" fill="#333">CS 5010 Spring 2025</text>
  
  <text x="250" y="215" font-family="Arial" font-size="14" fill="#333">Timezone:</text>
  <rect x="250" y="225" width="180" height="30" rx="5" fill="white" stroke="#ddd" stroke-width="1" />
  <text x="260" y="245" font-family="Arial" font-size="12" fill="#333" text-anchor="start">America/New_York</text>
  
  <text x="70" y="275" font-family="Arial" font-size="14" fill="#333">Description:</text>
  <rect x="70" y="285" width="360" height="40" rx="5" fill="white" stroke="#ddd" stroke-width="1" />
  <text x="80" y="305" font-family="Arial" font-size="12" fill="#333">Review of Assignment 5 (Part 2)</text>
  
  <!-- Warning Message -->
  <rect x="70" y="335" width="360" height="20" rx="5" fill="#FFF3E0" />
  <text x="80" y="350" font-family="Arial" font-size="10" fill="#F57C00" text-anchor="start">Note: Edits cannot create conflicts with existing events</text>
  
  <!-- Action Buttons -->
  <rect x="250" y="365" width="85" height="30" rx="5" fill="#4285F4" />
  <text x="293" y="385" font-family="Arial" font-size="14" fill="white" text-anchor="middle">Save</text>
  
  <rect x="345" y="365" width="85" height="30" rx="5" fill="#F5F5F5" stroke="#ddd" stroke-width="1" />
  <text x="388" y="385" font-family="Arial" font-size="14" fill="#333" text-anchor="middle">Cancel</text>
</svg>
